# Blender v2.78 (sub 0) OBJ File: 'pickaxe.blend'
# www.blender.org
o Cube
v 0.062500 0.353553 1.285178
v 0.062500 -0.353554 1.285177
v 0.062500 -0.000000 1.638731
v 0.062500 0.176777 1.108401
v 0.062500 -0.530330 1.461954
v 0.062500 0.176777 0.754847
v 0.062500 -0.176777 0.754847
v 0.062500 -0.176777 1.108401
v 0.062500 -0.883883 1.108400
v 0.062500 0.883883 1.108401
v 0.062500 -0.176776 0.047741
v 0.062500 0.176777 0.401294
v 0.062500 -0.176776 0.401294
v 0.062500 0.176777 0.047741
v 0.062500 -0.353554 1.638731
v 0.062500 0.088388 1.020012
v 0.062500 -0.618719 1.550342
v 0.062500 0.088388 0.843236
v 0.062500 -0.265165 1.196789
v 0.062500 -0.972272 1.196789
v 0.062500 0.088388 1.727119
v 0.062500 0.441942 1.196789
v 0.062500 0.088389 0.312906
v 0.062500 0.265165 1.196789
v 0.062500 -0.088388 0.843236
v 0.062500 -0.088388 1.020012
v 0.062500 -0.441942 1.196789
v 0.062500 -0.088389 1.727119
v 0.062500 0.972272 1.196789
v 0.062500 -0.088388 0.136129
v 0.062500 -0.088388 0.312906
v 0.062500 -0.088388 0.489682
v 0.062500 0.088388 0.666459
v 0.062500 -0.088388 0.666459
v 0.062500 0.088389 0.489682
v 0.062500 0.972272 1.020013
v 0.062500 0.618718 1.196789
v 0.062500 0.795495 1.373566
v 0.062500 0.795495 1.196789
v 0.062500 0.441941 1.550343
v 0.062500 -0.441942 1.550342
v 0.062500 -0.265165 1.550342
v 0.062500 -0.795495 1.196789
v 0.062500 -0.795495 1.373565
v 0.062500 -0.618718 1.196789
v 0.062500 -0.088388 1.196789
v 0.062500 0.088388 1.196789
v 0.062500 -0.972272 1.020012
v 0.062500 -0.088388 -0.040648
v 0.062500 0.088389 -0.217424
v 0.062500 0.176777 -0.129036
v 0.062500 -0.176776 -0.129036
v 0.062500 -1.060660 1.108400
v 0.062500 0.176777 1.285177
v 0.062500 -0.176777 1.285177
v 0.062500 -0.530330 1.285177
v 0.062500 -0.707107 1.461954
v 0.062500 -0.883884 1.285177
v 0.062500 -0.176777 0.931624
v 0.062500 -0.176777 1.638731
v 0.062500 0.176777 0.931624
v 0.062500 0.883883 1.285178
v 0.062500 0.530330 1.285178
v 0.062500 -0.176776 0.224517
v 0.062500 0.176777 0.578071
v 0.062500 -0.176776 0.578071
v 0.062500 0.707107 1.108401
v 0.062500 -0.707107 1.108400
v 0.062500 -0.000000 0.931624
v 0.062500 0.000000 0.224518
v 0.062500 0.530330 1.461954
v 0.062500 0.176777 1.461954
v 0.062500 -0.176777 1.461954
v 0.062500 0.000000 0.578071
v 0.062500 0.707107 1.285178
v 0.062500 0.353553 1.638731
v 0.062500 -0.707107 1.285177
v 0.062500 -0.000000 1.285177
v 0.062500 0.000000 -0.129036
v 0.062500 0.618718 1.550343
v 0.062500 -0.441942 1.373566
v 0.062500 0.265165 1.373566
v 0.062500 -0.088388 1.550342
v 0.062500 0.441942 1.373566
v 0.062500 0.088388 1.550343
v 0.062500 -0.265165 1.373566
v 0.062500 0.088388 0.136129
v 0.062500 0.618718 1.373566
v 0.062500 0.265165 1.550343
v 0.062500 -0.618718 1.373566
v 0.062500 -0.088388 1.373566
v 0.062500 0.088388 1.373566
v 0.062500 0.088388 -0.040648
v 0.062500 -0.088388 -0.217424
v 0.062500 0.000000 0.047741
v 0.062500 -0.000000 1.461954
v 0.062500 0.176777 1.638731
v 0.062500 1.060660 1.108401
v 0.062500 0.707107 1.461954
v 0.062500 0.176777 0.224517
v 0.062500 0.000000 0.754847
v 0.062500 0.000000 0.401294
v 0.062500 -0.353553 1.461954
v 0.062500 0.353553 1.461954
v 0.062500 -0.000000 1.108401
v 0.062500 0.000000 -0.305812
v -0.062500 0.088388 1.020012
v -0.062500 -0.000000 0.931624
v -0.062500 0.088388 0.843236
v -0.062500 0.441941 1.373566
v -0.062500 0.353553 1.285178
v -0.062500 -0.265165 1.196789
v -0.062500 -0.353554 1.285177
v -0.062500 -0.265165 1.373566
v -0.062500 0.088388 1.727119
v -0.062500 -0.000000 1.638731
v -0.062500 0.088388 1.550343
v -0.062500 0.441942 1.196789
v -0.062500 0.088389 0.312906
v -0.062500 0.000000 0.224517
v -0.062500 0.088389 0.136129
v -0.062500 -0.441942 1.373566
v -0.062500 -0.530330 1.461954
v -0.062500 -0.088388 0.843236
v -0.062500 -0.176777 0.754847
v -0.062500 0.618718 1.550343
v -0.062500 0.530330 1.461954
v -0.062500 -0.088388 1.020012
v -0.062500 -0.176777 1.108401
v -0.062500 -0.088389 1.550342
v -0.062500 -0.176777 1.461954
v -0.062500 0.265165 1.373566
v -0.062500 0.176776 1.461954
v -0.062500 0.972272 1.196789
v -0.062500 0.883883 1.108401
v -0.062500 -0.088388 0.136129
v -0.062500 -0.176776 0.047741
v -0.062500 -0.088388 0.312906
v -0.062500 -0.176776 0.401294
v -0.062500 -0.088388 0.489682
v -0.062500 0.088388 0.666459
v -0.062500 0.000000 0.578071
v -0.062500 -0.088388 0.666459
v -0.062500 0.088389 0.489682
v -0.062500 0.972272 1.020013
v -0.062500 0.795495 1.373566
v -0.062500 0.707107 1.285178
v -0.062500 0.618718 1.373566
v -0.062500 0.795495 1.196789
v -0.062500 0.265165 1.550343
v -0.062500 0.441941 1.550343
v -0.062500 0.353553 1.638731
v -0.062500 -0.441942 1.550342
v -0.062500 -0.265165 1.550342
v -0.062500 -0.353554 1.638731
v -0.062500 -0.795495 1.196789
v -0.062500 -0.883883 1.108400
v -0.062500 -0.618719 1.373566
v -0.062500 -0.707107 1.285177
v -0.062500 -0.618718 1.196789
v -0.062500 -0.088388 1.196789
v -0.062500 0.088388 1.373566
v -0.062500 -0.000000 1.285177
v -0.062500 -0.088388 1.373566
v -0.062500 0.088388 1.196789
v -0.062500 0.088389 -0.040647
v -0.062500 0.000000 -0.129036
v -0.062500 -0.088388 -0.040648
v -0.062500 0.088389 -0.217424
v -0.062500 0.176777 1.108401
v -0.062500 -0.618719 1.550342
v -0.062500 0.176777 0.754847
v -0.062500 -0.972272 1.196789
v -0.062500 0.176777 0.401294
v -0.062500 0.176777 0.047741
v -0.062500 0.265165 1.196789
v -0.062500 -0.441942 1.196789
v -0.062500 -0.088389 1.727119
v -0.062500 0.618718 1.196789
v -0.062500 -0.795495 1.373565
v -0.062500 -0.972272 1.020012
v -0.062500 -0.088388 -0.217424
v -0.062500 0.176777 -0.129036
v -0.062500 0.000000 0.047741
v -0.062500 -0.176776 -0.129036
v -0.062500 -1.060660 1.108400
v -0.062500 0.176777 1.285177
v -0.062500 -0.000000 1.461954
v -0.062500 -0.176777 1.285177
v -0.062500 -0.530330 1.285177
v -0.062500 -0.707107 1.461954
v -0.062500 -0.883884 1.285177
v -0.062500 -0.176777 0.931624
v -0.062500 -0.176777 1.638731
v -0.062500 0.176776 1.638731
v -0.062500 0.176777 0.931624
v -0.062500 0.883883 1.285178
v -0.062500 0.707107 1.461954
v -0.062500 0.530330 1.285178
v -0.062500 1.060660 1.108401
v -0.062500 -0.176776 0.224517
v -0.062500 0.176777 0.578071
v -0.062500 0.000000 0.754847
v -0.062500 -0.176776 0.578071
v -0.062500 0.176777 0.224518
v -0.062500 0.000000 0.401294
v -0.062500 0.707107 1.108401
v -0.062500 0.353553 1.461954
v -0.062500 -0.353554 1.461954
v -0.062500 -0.707107 1.108401
v -0.062500 -0.000000 1.108401
v -0.062500 0.000001 -0.305812
vt 0.4375 0.7500
vt 0.5000 0.7500
vt 0.5000 0.8125
vt 0.4375 0.8125
vt 0.4375 0.8750
vt 0.5000 0.8750
vt 0.5000 0.9375
vt 0.4375 0.9375
vt 0.4375 0.7500
vt 0.5000 0.7500
vt 0.5000 0.8125
vt 0.4375 0.8125
vt 0.3750 0.8750
vt 0.4375 0.8750
vt 0.4375 0.9375
vt 0.3750 0.9375
vt 0.5000 0.4375
vt 0.4375 0.4375
vt 0.4375 0.3750
vt 0.5000 0.3750
vt 0.4375 0.3750
vt 0.5000 0.3750
vt 0.5000 0.4375
vt 0.4375 0.4375
vt 0.8125 0.3750
vt 0.8750 0.3750
vt 0.8750 0.4375
vt 0.8125 0.4375
vt 0.2500 0.8750
vt 0.3125 0.8750
vt 0.3125 0.9375
vt 0.2500 0.9375
vt 0.8125 0.5000
vt 0.8750 0.5000
vt 0.8750 0.5625
vt 0.8125 0.5625
vt 0.4375 0.8750
vt 0.5000 0.8750
vt 0.5000 0.9375
vt 0.4375 0.9375
vt 0.1875 0.2500
vt 0.2500 0.2500
vt 0.2500 0.3125
vt 0.1875 0.3125
vt 0.7500 0.6875
vt 0.8125 0.6875
vt 0.8125 0.7500
vt 0.7500 0.7500
vt 0.3750 0.3125
vt 0.3125 0.3125
vt 0.3125 0.2500
vt 0.3750 0.2500
vt 0.7500 0.6250
vt 0.8125 0.6250
vt 0.8125 0.6875
vt 0.7500 0.6875
vt 0.7500 0.6875
vt 0.8125 0.6875
vt 0.8125 0.7500
vt 0.7500 0.7500
vt 0.1875 0.2500
vt 0.2500 0.2500
vt 0.2500 0.3125
vt 0.1875 0.3125
vt 0.2500 0.8750
vt 0.3125 0.8750
vt 0.3125 0.9375
vt 0.2500 0.9375
vt 0.6875 0.7500
vt 0.7500 0.7500
vt 0.7500 0.8125
vt 0.6875 0.8125
vt 0.3125 0.8750
vt 0.3750 0.8750
vt 0.3750 0.9375
vt 0.3125 0.9375
vt 0.5625 0.8125
vt 0.6250 0.8125
vt 0.6250 0.8750
vt 0.5625 0.8750
vt 0.0625 0.1250
vt 0.1250 0.1250
vt 0.1250 0.1875
vt 0.0625 0.1875
vt 0.2500 0.1875
vt 0.3125 0.1875
vt 0.3125 0.2500
vt 0.2500 0.2500
vt 0.3125 0.8125
vt 0.3750 0.8125
vt 0.3750 0.8750
vt 0.3125 0.8750
vt 0.0625 0.1250
vt 0.1250 0.1250
vt 0.1250 0.1875
vt 0.0625 0.1875
vt 0.1250 0.1875
vt 0.1875 0.1875
vt 0.1875 0.2500
vt 0.1250 0.2500
vt 0.3125 0.2500
vt 0.2500 0.2500
vt 0.2500 0.1875
vt 0.3125 0.1875
vt 0.7500 0.4375
vt 0.8125 0.4375
vt 0.8125 0.5000
vt 0.7500 0.5000
vt 0.3125 0.2500
vt 0.3750 0.2500
vt 0.3750 0.3125
vt 0.3125 0.3125
vt 0.3125 0.8125
vt 0.3750 0.8125
vt 0.3750 0.8750
vt 0.3125 0.8750
vt 0.4375 0.5000
vt 0.5000 0.5000
vt 0.5000 0.5625
vt 0.4375 0.5625
vt 0.8125 0.3125
vt 0.8750 0.3125
vt 0.8750 0.3750
vt 0.8125 0.3750
vt 0.3750 0.4375
vt 0.4375 0.4375
vt 0.4375 0.5000
vt 0.3750 0.5000
vt 0.2500 0.3125
vt 0.3125 0.3125
vt 0.3125 0.3750
vt 0.2500 0.3750
vt 0.2500 0.1875
vt 0.1875 0.1875
vt 0.1875 0.1250
vt 0.2500 0.1250
vt 0.6250 0.5625
vt 0.5625 0.5625
vt 0.5625 0.5000
vt 0.6250 0.5000
vt 0.8125 0.3125
vt 0.8750 0.3125
vt 0.8750 0.3750
vt 0.8125 0.3750
vt 0.8750 0.4375
vt 0.9375 0.4375
vt 0.9375 0.5000
vt 0.8750 0.5000
vt 0.1250 0.1875
vt 0.1875 0.1875
vt 0.1875 0.2500
vt 0.1250 0.2500
vt 0.4375 0.5000
vt 0.5000 0.5000
vt 0.5000 0.5625
vt 0.4375 0.5625
vt 0.5000 0.4375
vt 0.5625 0.4375
vt 0.5625 0.5000
vt 0.5000 0.5000
vt 0.5000 0.5625
vt 0.5625 0.5625
vt 0.5625 0.6250
vt 0.5000 0.6250
vt 0.6875 0.5000
vt 0.7500 0.5000
vt 0.7500 0.5625
vt 0.6875 0.5625
vt 0.3750 0.3125
vt 0.4375 0.3125
vt 0.4375 0.3750
vt 0.3750 0.3750
vt 0.2500 0.3125
vt 0.3125 0.3125
vt 0.3125 0.3750
vt 0.2500 0.3750
vt 0.6250 0.5625
vt 0.6875 0.5625
vt 0.6875 0.6250
vt 0.6250 0.6250
vt 0.5625 0.5000
vt 0.5000 0.5000
vt 0.5000 0.4375
vt 0.5625 0.4375
vt 0.8125 0.5625
vt 0.8750 0.5625
vt 0.8750 0.6250
vt 0.8125 0.6250
vt 0.4375 0.3750
vt 0.3750 0.3750
vt 0.3750 0.3125
vt 0.4375 0.3125
vt 0.3750 0.4375
vt 0.4375 0.4375
vt 0.4375 0.5000
vt 0.3750 0.5000
vt 0.8750 0.1875
vt 0.9375 0.1875
vt 0.9375 0.2500
vt 0.8750 0.2500
vt 0.8750 0.1875
vt 0.9375 0.1875
vt 0.9375 0.2500
vt 0.8750 0.2500
vt 0.1875 0.8750
vt 0.2500 0.8750
vt 0.2500 0.9375
vt 0.1875 0.9375
vt 0.0625 0.0625
vt 0.1250 0.0625
vt 0.1250 0.1250
vt 0.0625 0.1250
vt 0.6875 0.5000
vt 0.7500 0.5000
vt 0.7500 0.5625
vt 0.6875 0.5625
vt 0.0625 0.0625
vt 0.1250 0.0625
vt 0.1250 0.1250
vt 0.0625 0.1250
vt 0.8750 0.1875
vt 0.9375 0.1875
vt 0.9375 0.2500
vt 0.8750 0.2500
vt 0.1875 0.8750
vt 0.2500 0.8750
vt 0.2500 0.9375
vt 0.1875 0.9375
vt 0.8750 0.3125
vt 0.9375 0.3125
vt 0.9375 0.3750
vt 0.8750 0.3750
vt 0.8750 0.2500
vt 0.9375 0.2500
vt 0.9375 0.3125
vt 0.8750 0.3125
vt 0.1875 0.8750
vt 0.1875 0.9375
vt 0.5000 0.8125
vt 0.5625 0.8125
vt 0.5625 0.8750
vt 0.5000 0.8750
vt 0.8750 0.2500
vt 0.9375 0.2500
vt 0.9375 0.3125
vt 0.8750 0.3125
vt 0.6250 0.7500
vt 0.6875 0.7500
vt 0.6875 0.8125
vt 0.6250 0.8125
vt 0.5000 0.5625
vt 0.5625 0.5625
vt 0.5625 0.6250
vt 0.5000 0.6250
vt 0.6875 0.7500
vt 0.7500 0.7500
vt 0.7500 0.8125
vt 0.6875 0.8125
vt 0.5625 0.5625
vt 0.5625 0.5000
vt 0.5000 0.5000
vt 0.5000 0.5625
vt 0.5625 0.8125
vt 0.5625 0.7500
vt 0.5000 0.8125
vt 0.8125 0.5625
vt 0.8125 0.5000
vt 0.7500 0.5625
vt 0.3125 0.3125
vt 0.2500 0.2500
vt 0.2500 0.3125
vt 0.4375 0.4375
vt 0.3750 0.3750
vt 0.3750 0.4375
vt 0.3125 0.9375
vt 0.2500 0.9375
vt 0.4375 0.9375
vt 0.4375 0.8750
vt 0.3750 0.8750
vt 0.3750 0.9375
vt 0.8125 0.6875
vt 0.8125 0.6250
vt 0.7500 0.6250
vt 0.7500 0.6875
vt 0.6875 0.8125
vt 0.6875 0.7500
vt 0.6250 0.7500
vt 0.6250 0.8125
vt 0.9375 0.4375
vt 0.9375 0.3750
vt 0.8750 0.3750
vt 0.8750 0.4375
vt 0.9375 0.3125
vt 0.9375 0.2500
vt 0.8750 0.2500
vt 0.6875 0.6875
vt 0.6875 0.6250
vt 0.6250 0.6250
vt 0.6250 0.6875
vt 0.1875 0.1875
vt 0.1875 0.1250
vt 0.1250 0.1250
vt 0.1250 0.1875
vt 0.1875 0.0625
vt 0.1875 0.2500
vt 0.1250 0.2500
vt 0.2500 0.1250
vt 0.0625 0.1250
vt 0.0625 0.1875
vt 0.7500 0.7500
vt 0.5625 0.6875
vt 0.5000 0.6875
vt 0.5625 0.6250
vt 0.9375 0.5000
vt 0.8750 0.5000
vt 0.8125 0.4375
vt 0.7500 0.4375
vt 0.8125 0.3750
vt 0.7500 0.8125
vt 0.8125 0.7500
vt 0.1875 0.9375
vt 0.4375 0.8125
vt 0.5000 0.8750
vt 0.5000 0.9375
vt 0.4375 0.5000
vt 0.4375 0.5625
vt 0.1875 0.3125
vt 0.3750 0.5000
vt 0.3125 0.3750
vt 0.3125 0.4375
vt 0.2500 0.3750
vt 0.8750 0.6250
vt 0.8750 0.5625
vt 0.5625 0.8750
vt 0.6250 0.8750
vt 0.5000 0.6250
vt 0.6250 0.5000
vt 0.5625 0.5625
vt 0.5000 0.5625
vt 0.5000 0.5000
vt 0.5625 0.5000
vt 0.8125 0.5625
vt 0.7500 0.5625
vt 0.8125 0.5000
vt 0.5625 0.8125
vt 0.5000 0.8125
vt 0.5000 0.7500
vt 0.5625 0.7500
vt 0.3125 0.3125
vt 0.2500 0.3125
vt 0.2500 0.2500
vt 0.3125 0.2500
vt 0.4375 0.4375
vt 0.3750 0.4375
vt 0.3750 0.3750
vt 0.4375 0.3750
vt 0.4375 0.9375
vt 0.3750 0.9375
vt 0.3750 0.8750
vt 0.4375 0.8750
vt 0.3125 0.9375
vt 0.2500 0.9375
vt 0.2500 0.8750
vt 0.6875 0.8125
vt 0.6250 0.8125
vt 0.6250 0.7500
vt 0.6875 0.7500
vt 0.7500 0.6875
vt 0.7500 0.6250
vt 0.8125 0.6250
vt 0.9375 0.4375
vt 0.8750 0.4375
vt 0.8750 0.3750
vt 0.6875 0.6875
vt 0.6250 0.6875
vt 0.6250 0.6250
vt 0.6875 0.6250
vt 0.1875 0.1875
vt 0.1250 0.1875
vt 0.1250 0.1250
vt 0.1875 0.1250
vt 0.2500 0.1875
vt 0.1875 0.2500
vt 0.1250 0.0625
vt 0.1875 0.0625
vt 0.8750 0.1875
vt 0.9375 0.1875
vt 0.5625 0.6875
vt 0.5625 0.6250
vt 0.5000 0.6875
vt 0.7500 0.7500
vt 0.6875 0.5000
vt 0.6250 0.5625
vt 0.8750 0.5000
vt 0.7500 0.4375
vt 0.9375 0.5000
vt 0.5000 0.4375
vt 0.4375 0.5000
vt 0.5000 0.8750
vt 0.4375 0.7500
vt 0.3750 0.8125
vt 0.1875 0.8750
vt 0.3125 0.4375
vt 0.3125 0.3750
vt 0.3750 0.3125
vt 0.3125 0.8125
vt 0.6250 0.8750
vt 0.5625 0.8750
vt 0.8125 0.3125
vt 0.0625 0.0625
vt 0.1875 0.1250
vt 0.1250 0.1250
vt 0.1250 0.0625
vt 0.5625 0.6250
vt 0.6250 0.6250
vt 0.6250 0.6875
vt 0.6250 0.5625
vt 0.5625 0.5625
vt 0.5000 0.6875
vt 0.5625 0.6875
vt 0.5625 0.7500
vt 0.8125 0.5625
vt 0.8750 0.5625
vt 0.8750 0.6250
vt 0.8125 0.6250
vt 0.8125 0.5000
vt 0.7500 0.5000
vt 0.3125 0.3750
vt 0.3750 0.3750
vt 0.3750 0.4375
vt 0.1875 0.1250
vt 0.2500 0.1875
vt 0.1875 0.1875
vt 0.8750 0.3750
vt 0.9375 0.3750
vt 0.8750 0.4375
vt 0.4375 0.8750
vt 0.5625 0.8125
vt 0.6250 0.8125
vt 0.5625 0.8750
vt 0.8750 0.4375
vt 0.9375 0.4375
vt 0.8750 0.5000
vt 0.3125 0.3750
vt 0.3750 0.3750
vt 0.3750 0.4375
vt 0.3125 0.4375
vt 0.5625 0.7500
vt 0.5000 0.7500
vn 0.0000 0.7071 -0.7071
vn 0.0000 -0.7071 0.7071
vn 0.0000 -0.7071 -0.7071
vn 0.0000 0.7071 0.7071
vn 1.0000 0.0000 -0.0000
vn -1.0000 -0.0000 0.0000
s off
f 63/1/1 22/2/1 118/3/1 199/4/1
f 71/5/2 80/6/2 126/7/2 127/8/2
f 22/9/3 1/10/3 111/11/3 118/12/3
f 99/13/4 38/14/4 146/15/4 198/16/4
f 7/17/2 25/18/2 124/19/2 125/20/2
f 34/21/3 7/22/3 125/23/3 143/24/3
f 56/25/1 45/26/1 160/27/1 190/28/1
f 10/29/3 39/30/3 149/31/3 135/32/3
f 5/33/2 41/34/2 153/35/2 123/36/2
f 80/37/4 99/38/4 198/39/4 126/40/4
f 23/41/4 100/42/4 205/43/4 119/44/4
f 60/45/2 28/46/2 178/47/2 194/48/2
f 13/49/2 32/50/2 140/51/2 139/52/2
f 42/53/2 60/54/2 194/55/2 154/56/2
f 28/57/4 3/58/4 116/59/4 178/60/4
f 100/61/1 87/62/1 121/63/1 205/64/1
f 62/65/4 29/66/4 134/67/4 197/68/4
f 3/69/2 21/70/2 115/71/2 116/72/2
f 38/73/4 62/74/4 197/75/4 146/76/4
f 76/77/4 40/78/4 151/79/4 152/80/4
f 93/81/4 51/82/4 183/83/4 166/84/4
f 30/85/3 64/86/3 201/87/3 136/88/3
f 67/89/3 37/90/3 179/91/3 207/92/3
f 51/93/1 50/94/1 169/95/1 183/96/1
f 87/97/4 14/98/4 175/99/4 121/100/4
f 64/101/2 31/102/2 138/103/2 201/104/2
f 2/105/1 27/106/1 177/107/1 113/108/1
f 31/109/3 13/110/3 139/111/3 138/112/3
f 39/113/1 67/114/1 207/115/1 149/116/1
f 16/117/4 61/118/4 196/119/4 107/120/4
f 68/121/3 43/122/3 156/123/3 210/124/3
f 18/125/4 6/126/4 172/127/4 109/128/4
f 12/129/1 23/130/1 119/131/1 174/132/1
f 11/133/2 30/134/2 136/135/2 137/136/2
f 8/137/2 46/138/2 161/139/2 129/140/2
f 45/141/1 68/142/1 210/143/1 160/144/1
f 17/145/4 5/146/4 123/147/4 171/148/4
f 14/149/1 93/150/1 166/151/1 175/152/1
f 61/153/1 18/154/1 109/155/1 196/156/1
f 25/157/3 59/158/3 193/159/3 124/160/3
f 4/161/1 16/162/1 107/163/1 170/164/1
f 19/165/3 2/166/3 113/167/3 112/168/3
f 32/169/3 66/170/3 204/171/3 140/172/3
f 35/173/4 12/174/4 174/175/4 144/176/4
f 46/177/3 55/178/3 189/179/3 161/180/3
f 59/181/2 26/182/2 128/183/2 193/184/2
f 41/185/2 15/186/2 155/187/2 153/188/2
f 66/189/2 34/190/2 143/191/2 204/192/2
f 6/193/1 33/194/1 141/195/1 172/196/1
f 9/197/1 48/198/1 181/199/1 157/200/1
f 48/201/3 53/202/3 186/203/3 181/204/3
f 29/205/4 98/206/4 200/207/4 134/208/4
f 106/209/3 94/210/3 182/211/3 212/212/3
f 55/213/1 19/214/1 112/215/1 189/216/1
f 50/217/1 106/218/1 212/219/1 169/220/1
f 53/221/2 20/222/2 173/223/2 186/224/2
f 98/225/1 36/226/1 145/227/1 200/228/1
f 58/229/2 44/230/2 180/231/2 192/232/2
f 20/233/2 58/234/2 192/235/2 173/236/2
f 36/237/3 10/29/3 135/32/3 145/238/3
f 40/239/4 71/240/4 127/241/4 151/242/4
f 43/243/1 9/244/1 157/245/1 156/246/1
f 97/247/4 89/248/4 150/249/4 195/250/4
f 47/251/4 4/252/4 170/253/4 165/254/4
f 21/255/4 97/256/4 195/257/4 115/258/4
f 105/259/5 26/260/5 69/261/5 16/262/5
f 104/263/5 82/264/5 1/10/5 84/265/5
f 103/266/5 81/267/5 2/166/5 86/268/5
f 102/269/5 31/109/5 70/270/5 23/271/5
f 101/272/5 34/21/5 74/273/5 33/274/5
f 62/275/5 39/30/5 10/29/5 29/276/5
f 99/277/5 88/278/5 75/279/5 38/280/5
f 60/281/5 42/282/5 73/283/5 83/284/5
f 97/285/5 85/286/5 72/287/5 89/288/5
f 57/289/5 44/290/5 77/291/5 90/292/5
f 58/293/5 20/294/5 9/295/5 43/122/5
f 96/296/5 91/297/5 78/298/5 92/299/5
f 95/300/5 49/301/5 79/302/5 93/303/5
f 49/301/5 52/304/5 94/210/5 79/302/5
f 87/305/5 95/300/5 93/303/5 14/306/5
f 70/270/5 30/85/5 95/300/5 87/305/5
f 30/85/5 11/307/5 49/301/5 95/300/5
f 93/303/5 79/302/5 50/308/5 51/309/5
f 91/297/5 55/178/5 46/177/5 78/298/5
f 73/283/5 86/268/5 55/178/5 91/297/5
f 86/268/5 2/166/5 19/165/5 55/178/5
f 85/286/5 96/296/5 92/299/5 72/287/5
f 3/310/5 83/284/5 96/296/5 85/286/5
f 83/284/5 73/283/5 91/297/5 96/296/5
f 82/264/5 54/311/5 24/312/5 1/10/5
f 72/287/5 92/299/5 54/311/5 82/264/5
f 92/299/5 78/298/5 47/313/5 54/311/5
f 26/260/5 59/158/5 25/157/5 69/261/5
f 44/290/5 58/293/5 43/122/5 77/291/5
f 17/314/5 57/289/5 90/292/5 5/315/5
f 81/267/5 56/316/5 27/317/5 2/166/5
f 5/315/5 90/292/5 56/316/5 81/267/5
f 90/292/5 77/291/5 45/318/5 56/316/5
f 20/294/5 53/202/5 48/201/5 9/295/5
f 21/319/5 3/310/5 85/286/5 97/285/5
f 28/320/5 60/281/5 83/284/5 3/310/5
f 29/276/5 10/29/5 36/237/5 98/321/5
f 88/278/5 63/322/5 37/90/5 75/279/5
f 71/323/5 84/265/5 63/322/5 88/278/5
f 84/265/5 1/10/5 22/9/5 63/322/5
f 80/324/5 71/323/5 88/278/5 99/277/5
f 38/280/5 75/279/5 39/30/5 62/275/5
f 16/262/5 69/261/5 18/325/5 61/326/5
f 23/271/5 70/270/5 87/305/5 100/327/5
f 34/21/5 66/170/5 32/169/5 74/273/5
f 18/325/5 101/272/5 33/274/5 6/328/5
f 69/261/5 25/157/5 101/272/5 18/325/5
f 25/157/5 7/22/5 34/21/5 101/272/5
f 33/274/5 74/273/5 35/329/5 65/330/5
f 31/109/5 64/86/5 30/85/5 70/270/5
f 35/329/5 102/269/5 23/271/5 12/331/5
f 74/273/5 32/169/5 102/269/5 35/329/5
f 32/169/5 13/110/5 31/109/5 102/269/5
f 75/279/5 37/90/5 67/89/5 39/30/5
f 42/282/5 103/266/5 86/268/5 73/283/5
f 15/332/5 41/333/5 103/266/5 42/282/5
f 41/333/5 5/315/5 81/267/5 103/266/5
f 40/334/5 104/263/5 84/265/5 71/323/5
f 76/335/5 89/288/5 104/263/5 40/334/5
f 89/288/5 72/287/5 82/264/5 104/263/5
f 77/291/5 43/122/5 68/121/5 45/318/5
f 47/313/5 105/259/5 16/262/5 4/336/5
f 78/298/5 46/177/5 105/259/5 47/313/5
f 46/177/5 8/337/5 26/260/5 105/259/5
f 79/302/5 94/210/5 106/209/5 50/308/5
f 211/338/6 107/339/6 108/340/6 128/341/6
f 209/342/6 114/343/6 113/108/6 122/344/6
f 208/345/6 110/346/6 111/347/6 132/348/6
f 206/349/6 119/350/6 120/351/6 138/352/6
f 203/353/6 141/354/6 142/355/6 143/356/6
f 198/357/6 146/358/6 147/359/6 148/360/6
f 197/361/6 134/362/6 135/363/6 149/116/6
f 195/364/6 150/365/6 133/366/6 117/367/6
f 194/55/6 130/368/6 131/369/6 154/370/6
f 192/235/6 156/246/6 157/200/6 173/223/6
f 191/371/6 158/372/6 159/373/6 180/231/6
f 188/374/6 162/375/6 163/376/6 164/377/6
f 184/378/6 166/379/6 167/380/6 168/381/6
f 166/379/6 183/96/6 169/220/6 167/380/6
f 136/382/6 184/378/6 168/381/6 137/136/6
f 120/351/6 121/383/6 184/378/6 136/382/6
f 121/383/6 175/152/6 166/379/6 184/378/6
f 168/381/6 167/380/6 182/384/6 185/385/6
f 173/223/6 157/200/6 181/386/6 186/387/6
f 162/375/6 187/388/6 165/389/6 163/376/6
f 133/366/6 132/348/6 187/388/6 162/375/6
f 132/348/6 111/347/6 176/390/6 187/388/6
f 130/368/6 188/374/6 164/377/6 131/369/6
f 116/391/6 117/367/6 188/374/6 130/368/6
f 117/367/6 133/366/6 162/375/6 188/374/6
f 114/343/6 189/216/6 112/392/6 113/108/6
f 131/369/6 164/377/6 189/216/6 114/343/6
f 164/377/6 163/376/6 161/393/6 189/216/6
f 158/372/6 190/28/6 160/144/6 159/373/6
f 123/394/6 122/344/6 190/28/6 158/372/6
f 122/344/6 113/108/6 177/395/6 190/28/6
f 171/396/6 123/394/6 158/372/6 191/371/6
f 180/231/6 159/373/6 156/246/6 192/235/6
f 128/341/6 108/340/6 124/397/6 193/184/6
f 178/47/6 116/391/6 130/368/6 194/55/6
f 115/71/6 195/364/6 117/367/6 116/391/6
f 107/339/6 196/156/6 109/398/6 108/340/6
f 146/358/6 197/361/6 149/116/6 147/359/6
f 126/7/6 198/357/6 148/360/6 127/399/6
f 110/346/6 199/4/6 118/400/6 111/347/6
f 127/399/6 148/360/6 199/4/6 110/346/6
f 148/360/6 147/359/6 179/401/6 199/4/6
f 134/362/6 200/228/6 145/402/6 135/363/6
f 138/352/6 120/351/6 136/382/6 201/104/6
f 141/354/6 202/403/6 144/404/6 142/355/6
f 124/397/6 203/353/6 143/356/6 125/20/6
f 108/340/6 109/398/6 203/353/6 124/397/6
f 109/398/6 172/196/6 141/354/6 203/353/6
f 143/356/6 142/355/6 140/405/6 204/192/6
f 119/350/6 205/64/6 121/383/6 120/351/6
f 140/405/6 206/349/6 138/352/6 139/52/6
f 142/355/6 144/404/6 206/349/6 140/405/6
f 144/404/6 174/132/6 119/350/6 206/349/6
f 147/359/6 149/116/6 207/406/6 179/401/6
f 150/365/6 208/345/6 132/348/6 133/366/6
f 152/407/6 151/408/6 208/345/6 150/365/6
f 151/408/6 127/399/6 110/346/6 208/345/6
f 153/35/6 209/342/6 122/344/6 123/394/6
f 155/187/6 154/370/6 209/342/6 153/35/6
f 154/370/6 131/369/6 114/343/6 209/342/6
f 159/373/6 160/144/6 210/409/6 156/246/6
f 161/393/6 211/338/6 128/341/6 129/140/6
f 163/376/6 165/389/6 211/338/6 161/393/6
f 165/389/6 170/164/6 107/339/6 211/338/6
f 167/380/6 169/220/6 212/410/6 182/384/6
f 52/411/2 49/412/2 168/413/2 185/385/2
f 54/414/1 47/415/1 165/416/1 187/388/1
f 26/260/3 8/337/3 129/417/3 128/418/3
f 1/419/1 24/420/1 176/421/1 111/347/1
f 15/422/4 42/423/4 154/424/4 155/425/4
f 27/317/3 56/316/3 190/426/3 177/427/3
f 65/428/1 35/429/1 144/430/1 202/403/1
f 94/210/3 52/304/3 185/431/3 182/211/3
f 49/301/3 11/307/3 137/432/3 168/433/3
f 44/434/2 57/435/2 191/371/2 180/436/2
f 37/90/3 63/322/3 199/437/3 179/91/3
f 89/438/2 76/439/2 152/407/2 150/440/2
f 57/441/2 17/442/2 171/396/2 191/443/2
f 33/444/4 65/445/4 202/446/4 141/447/4
f 24/312/3 54/311/3 187/448/3 176/449/3
